# AST/ASF file generated using VICON BodyLanguage
# -----------------------------------------------
:version 1.10
:name VICON
:units
  mass 1.0
  length 0.45
  angle deg
:documentation
   .ast/.asf automatically generated from VICON data using
   VICON BodyBuilder and BodyLanguage model FoxedUp or BRILLIANT.MOD
:root
   order TX TY TZ RX RY RZ
   axis XYZ
   position 0 0 0  
   orientation 0 0 0 
:bonedata
  begin
     id 1 
     name lhipjoint
     direction 0.567149 -0.783011 0.255413 
     length 2.28399 
     axis 0 0 0  XYZ
  end
  begin
     id 2 
     name lfemur
     direction 0.34202 -0.939693 0  
     length 7.34031  
     axis 0 0 20  XYZ
    dof rx ry rz
    limits (-160.0 20.0)
           (-70.0 70.0)
           (-60.0 70.0)
  end
  begin
     id 3 
     name ltibia
     direction 0.34202 -0.939693 0   
     length 6.9833   
     axis 0 0 20   XYZ
    dof rx
    limits (-10.0 170.0)
  end
  begin
     id 4 
     name lfoot
     direction 0.136498 -0.375025 0.91691   
     length 2.33665   
     axis -90 7.62852e-016 20   XYZ
    dof rx rz
    limits (-45.0 90.0)
           (-70.0 20.0)
  end
  begin
     id 5 
     name ltoes
     direction 1.5367e-011 -4.21617e-011 1   
     length 1.15039   
     axis -90 7.62852e-016 20   XYZ
    dof rx
    limits (-90.0 20.0)
  end
  begin
     id 6 
     name rhipjoint
     direction -0.602854 -0.758518 0.247423   
     length 2.35775  
     axis 0 0 0  XYZ 
  end
  begin
     id 7 
     name rfemur
     direction -0.34202 -0.939693 0   
     length 7.43932   
     axis 0 0 -20   XYZ
    dof rx ry rz
    limits (-160.0 20.0)
           (-70.0 70.0)
           (-70.0 60.0)
  end
  begin
     id 8 
     name rtibia
     direction -0.34202 -0.939693 0   
     length 7.11893   
     axis 0 0 -20   XYZ
    dof rx
    limits (-10.0 170.0)
 end
 begin
     id 9 
     name rfoot
     direction -0.131771 -0.362037 0.922803   
     length 2.53019  
     axis -90 -7.62852e-016 -20   XYZ
    dof rx rz
    limits (-45.0 90.0)
           (-20.0 70.0)
  end
  begin
     id 10 
     name rtoes
     direction -1.53733e-011 -4.21932e-011 1   
     length 1.24596   
     axis -90 -7.62852e-016 -20   XYZ
    dof rx
    limits (-90.0 20.0)
  end
  begin
     id 11 
     name lowerback
     direction 0.0235427 0.999023 -0.0374125   
     length 2.21768   
     axis 0 0 0   XYZ
    dof rx ry rz
    limits (-20.0 45.0)
           (-30.0 30.0)
           (-30.0 30.0)
  end
  begin
     id 12 
     name upperback
     direction 0.0302156 0.996818 -0.073759   
     length 2.20352   
     axis 0 0 0   XYZ
    dof rx ry rz
    limits (-20.0 45.0)
           (-30.0 30.0)
           (-30.0 30.0)
  end
  begin
     id 13 
     name thorax
     direction 0.0187169 0.998235 -0.0563532   
     length 2.22103   
     axis 0 0 0   XYZ
    dof rx ry rz
    limits (-20.0 45.0)
           (-30.0 30.0)
           (-30.0 30.0)
  end
  begin
     id 14 
     name lowerneck
     direction -0.119528 0.987423 0.103481   
     length 1.72948   
     axis 0 0 0   XYZ
    dof rx ry rz
    limits (-20.0 45.0)
           (-30.0 30.0)
           (-30.0 30.0)
  end
  begin
     id 15 
     name upperneck
     direction 0.248049 0.963095 -0.104496   
     length 1.74979   
     axis 0 0 0   XYZ
    dof rx ry rz
    limits (-20.0 45.0)
           (-30.0 30.0)
           (-30.0 30.0)
  end
  begin
     id 16
     name head
     direction 0.0903589 0.994284 -0.056876  
     length 1.78268  
     axis 0 0 0   XYZ
    dof rx ry rz
    limits (-20.0 45.0)
           (-30.0 30.0)
           (-30.0 30.0)
  end
  begin
     id 17 
     name lclavicle
     direction 0.946008 0.242039 -0.215608  
     length 3.80783  
     axis 0 0 0   XYZ
    dof ry rz
    limits (-20.0 10.0)
           (0.0 20.0)
  end
  begin
     id 18 
     name lhumerus
     direction 1 -4.48991e-011 -2.25695e-027   
     length 4.83125   
     axis 180 -30 -90   XYZ
    dof rx ry rz
    limits (-60.0 90.0)
           (-90.0 90.0)
           (-90.0 90.0)
  end
  begin
     id 19
     name lradius
     direction 0.999991 0.00366712 -0.00211721   
     length 3.00391   
     axis 180 -30 -90   XYZ
    dof rx
    limits (-10.0 170.0)
  end
  begin
     id 20
     name lwrist
     direction 0.999991 0.00393016 -0.00141978   
     length 1.50195   
     axis -1.00488e-014 90 90   XYZ
    dof ry
    limits (-180.0 0.0)
 end
  begin
     id 21 
     name lhand
     direction 1 -4.49123e-011 2.72098e-026   
     length 1.2717   
     axis -1.73687e-014 90 90   XYZ
    dof rx rz
    limits (-90.0 90.0)
           (-45.0 45.0)
  end
  begin
     id 22 
     name lfingers
     direction 1 -4.48678e-011 5.4479e-026   
     length 1.02528   
     axis -3.47372e-014 90 90   XYZ
    dof rx
    limits (0.0 90.0)
  end
  begin
     id 23
     name lthumb
     direction 0.707107 -6.34851e-011 0.707107   
     length 1.4721   
     axis -90 45 -1.62303e-014   XYZ
    dof rx rz
    limits (-45.0 45.0)
           (-45.0 45.0)
  end
  begin
     id 24 
     name rclavicle
     direction -0.981723 0.189447 -0.0181673   
     length 3.74989  
     axis 0 0 0   XYZ 
    dof ry rz
    limits (-10.0 20.0)
           (-20.0 0.0)
  end
  begin
     id 25 
     name rhumerus
     direction -1 -4.48985e-011 2.38206e-027  
     length 4.61118   
     axis 180 30 90   XYZ
    dof rx ry rz
    limits (-90.0 60.0)
           (-90.0 90.0)
           (-90.0 90.0)
  end
  begin
     id 26 
     name rradius
     direction -1 -4.48977e-011 7.41019e-027   
     length 2.91491   
     axis 180 30 90   XYZ
    dof rx
    limits (-10.0 170.0)
  end
  begin
     id 27 
     name rwrist
     direction -1 -4.48549e-011 1.3624e-026   
     length 1.45745   
     axis -1.00488e-014 -90 -90   XYZ
    dof ry
    limits (-180.0 0.0)
  end
  begin
     id 28
     name rhand
     direction -1 -4.49107e-011 2.72109e-026   
     length 1.30769   
     axis -1.73687e-014 -90 -90   XYZ
    dof rx rz
    limits (-90.0 90.0)
           (-45.0 45.0)
  end
  begin
     id 29
     name rfingers
     direction -1 -4.48919e-011 5.44468e-026   
     length 1.05429   
     axis -3.47372e-014 -90 -90   XYZ
    dof rx
    limits (0.0 90.0)
  end
  begin
     id 30
     name rthumb
     direction -0.707107 -6.35315e-011 0.707107   
     length 1.51376   
     axis -90 -45 1.62303e-014   XYZ
    dof rx rz
    limits (-45.0 45.0)
           (-45.0 45.0)
  end
:hierarchy
  begin
    root lhipjoint rhipjoint lowerback
    lhipjoint lfemur
    lfemur ltibia
    ltibia lfoot
    lfoot ltoes
    rhipjoint rfemur
    rfemur rtibia
    rtibia rfoot
    rfoot rtoes
    lowerback upperback
    upperback thorax
    thorax lowerneck lclavicle rclavicle
    lowerneck upperneck
    upperneck head
    lclavicle lhumerus
    lhumerus lradius
    lradius lwrist
    lwrist lhand lthumb
    lhand lfingers
    rclavicle rhumerus
    rhumerus rradius
    rradius rwrist
    rwrist rhand rthumb
    rhand rfingers
  end

#!OML:ASF X:\für Bonn\!DataBase\2005_08_11_Bastian_Final\c3d\Bastian.ASF
:FULLY-SPECIFIED
:DEGREES
17
root 2.60229 18.6946 23.0604 1076.73 -3.37481 -3.40599
lowerback -9.08845 -2.54912 1.03116
upperback 3.77218 -3.561 0.0828874
thorax 9.05762 -1.67014 -1.08629
lowerneck -3.25743 -0.552084 -8.34541
upperneck 4.44011 -0.766749 9.28987
head 1.90677 -0.292958 4.14301
rclavicle -4.91026e-014 1.94809e-014
rhumerus -57.5916 9.63558 -95.8722
rradius 78.2312
rwrist 5.35472
rhand -17.9306 25.2878
rfingers 7.12502
rthumb 8.33732 -4.52766
lclavicle -4.91026e-014 1.94809e-014
lhumerus -42.6438 -16.5632 86.4826
lradius 83.8603
lwrist -153.18
lhand -29.1391 15.6208
lfingers 7.12502
lthumb -2.48604 45.586
rfemur 3.05033 3.98153 29.4055
rtibia 43.2704
rfoot 13.5369 -4.13571
rtoes -21.2653
lfemur -2.10568 -1.45626 -15.5226
ltibia 50.4398
lfoot 21.3348 -8.25447
ltoes -28.2579
18
root 2.57947 18.9163 23.318 1076.54 -3.00817 -3.37945
lowerback -9.3621 -2.68252 0.822789
upperback 3.61751 -3.71613 0.111064
thorax 9.06148 -1.75803 -0.975642
lowerneck -2.68639 -0.481002 -8.42979
upperneck 4.59939 -0.725779 9.47715
head 1.85618 -0.282612 4.21642
rclavicle 1.99623e-014 1.78906e-014
rhumerus -57.9355 9.98072 -96.0089
rradius 79.2328
rwrist 5.42429
rhand -18.1295 25.7898
rfingers 7.12502
rthumb 8.14537 -4.03325
lclavicle 1.99623e-014 1.78906e-014
lhumerus -43.2985 -16.9318 86.7631
lradius 84.5153
lwrist -152.554
lhand -28.8263 15.9723
lfingers 7.12502
lthumb -2.18391 45.9409
rfemur 3.25204 5.82407 30.3622
rtibia 43.264
rfoot 16.2753 -3.77194
rtoes -19.9733
lfemur -2.63989 -2.50137 -15.8908
ltibia 51.4884
lfoot 22.8342 -7.47715
ltoes -27.7835
19
root 2.5586 19.1219 23.5603 1076.19 -2.63881 -3.37967
lowerback -9.24774 -2.81779 0.631881
upperback 3.51019 -3.87359 0.153772
thorax 8.89097 -1.84954 -0.84024
lowerneck -2.24083 -0.453015 -8.44513
upperneck 4.75018 -0.731361 9.54737
head 1.82747 -0.294306 4.2412
rclavicle -5.59765e-014 -8.74653e-015
rhumerus -58.1602 10.42 -96.1113
rradius 79.9616
rwrist 5.55284
rhand -18.4454 26.3938
rfingers 7.12502
rthumb 7.84046 -3.44079
lclavicle -5.59765e-014 -8.74653e-015
lhumerus -43.9941 -17.2734 87.0909
lradius 85.3077
lwrist -152.186
lhand -28.4551 16.2647
lfingers 7.12502
lthumb -1.82543 46.2366
rfemur 3.29888 7.02365 31.1175
rtibia 43.7051
rfoot 18.3236 -2.9406
rtoes -19.2494
lfemur -3.15939 -3.4208 -16.2222
ltibia 52.8545
lfoot 23.5767 -6.57721
ltoes -26.434
20
root 2.54057 19.3116 23.7808 1075.75 -2.25597 -3.40967
lowerback -8.71891 -2.94867 0.493541
upperback 3.44241 -4.02868 0.181855
thorax 8.51846 -1.93971 -0.725655
lowerneck -2.01899 -0.439546 -8.30903
upperneck 4.96182 -0.744073 9.49268
head 1.85359 -0.304075 4.20251
rclavicle 3.32529e-014 -2.78299e-015
rhumerus -58.3528 10.8628 -96.2508
rradius 80.5793
rwrist 5.61735
rhand -18.817 26.8993
rfingers 7.12502
rthumb 7.48175 -2.9484
lclavicle 3.32529e-014 -2.78299e-015
lhumerus -44.5388 -17.5455 87.365
lradius 86.1034
lwrist -152.068
lhand -28.1594 16.4958
lfingers 7.12502
lthumb -1.53988 46.47
rfemur 3.10409 7.64272 31.7277
rtibia 44.5581
rfoot 19.6439 -1.72893
rtoes -19.1695
lfemur -3.69827 -4.079 -16.4685
ltibia 54.4251
lfoot 23.8617 -5.56191
ltoes -23.9419
21
root 2.51623 19.4882 23.99 1075.2 -1.56997 -3.5359
lowerback -7.8693 -3.17141 0.292798
upperback 3.40567 -4.30408 0.263302
thorax 8.00349 -2.09543 -0.517402
lowerneck -1.88762 -0.462731 -8.07659
upperneck 5.16726 -0.796271 9.31557
head 1.89594 -0.332196 4.10926
rclavicle -3.36319e-014 -1.03368e-014
rhumerus -58.5557 11.3502 -96.3543
rradius 81.0892
rwrist 5.59569
rhand -19.1297 27.3049
rfingers 7.12502
rthumb 7.17999 -2.55327
lclavicle -3.36319e-014 -1.03368e-014
lhumerus -44.9217 -17.6669 87.6742
lradius 86.7531
lwrist -152.289
lhand -27.8985 16.6712
lfingers 7.12502
lthumb -1.28787 46.6471
rfemur 2.76226 7.44465 32.2687
rtibia 45.6486
rfoot 20.4348 -0.388412
rtoes -19.878
lfemur -4.28887 -4.38375 -16.4222
ltibia 56.0815
lfoot 23.8349 -4.98014
ltoes -21.4579
22
root 2.50473 19.6579 24.1724 1074.64 -1.34538 -3.63573
lowerback -6.57536 -3.21883 0.329406
upperback 3.34757 -4.36463 0.290991
thorax 7.19084 -2.13583 -0.433298
lowerneck -1.84693 -0.498902 -7.85586
upperneck 5.34572 -0.858148 9.15704
head 1.94612 -0.36273 4.02334
rclavicle -4.51738e-014 -8.34896e-015
rhumerus -58.6722 11.8617 -96.4994
rradius 81.462
rwrist 5.52345
rhand -19.3488 27.4336
rfingers 7.12502
rthumb 6.96844 -2.43165
lclavicle -4.51738e-014 -8.34896e-015
lhumerus -45.0889 -17.6578 87.9275
lradius 87.1046
lwrist -152.593
lhand -27.7861 16.8983
lfingers 7.12502
lthumb -1.17935 46.8748
rfemur 2.21884 6.93917 32.4647
rtibia 46.8506
rfoot 21.0649 1.24261
rtoes -21.4771
lfemur -4.89885 -4.07996 -16.4277
ltibia 57.7083
lfoot 23.5117 -4.54724
ltoes -20.5748
23
root 2.49442 19.8247 24.3527 1074.03 -1.21231 -3.784
lowerback -5.10676 -3.22885 0.433083
upperback 3.36888 -4.38039 0.349849
thorax 6.36418 -2.15171 -0.339047
lowerneck -1.97017 -0.56408 -7.66823
upperneck 5.35105 -0.916012 8.64996
head 2.19136 -0.413393 4.25846
rclavicle -1.46107e-014 -5.96354e-015
rhumerus -58.6082 12.4065 -96.611
rradius 81.7161
rwrist 5.35462
rhand -19.4395 27.3356
rfingers 7.12502
rthumb 6.88092 -2.53254
lclavicle -1.46107e-014 -5.96354e-015
lhumerus -44.9788 -17.6209 88.1588
lradius 87.2211
lwrist -152.996
lhand -27.7322 17.0628
lfingers 7.12502
lthumb -1.12731 47.0396
rfemur 1.68701 5.8181 32.4072
rtibia 47.9747
rfoot 21.4167 2.9678
rtoes -24.4292
lfemur -5.43923 -3.52977 -16.3688
ltibia 59.1951
lfoot 22.9391 -4.31457
ltoes -21.7577
